<mxfile host="app.diagrams.net" modified="2020-09-11T15:31:18.555Z" agent="5.0 (Macintosh; Intel Mac OS X 10_14_6) AppleWebKit/537.36 (KHTML, like Gecko) Chrome/85.0.4183.102 Safari/537.36" etag="9iiDAUWdsEUzdZKKkoDN" version="13.6.6" type="github">
  <diagram id="hxspNUqaLA8-96vzYpsR" name="Page-1">
    <mxGraphModel dx="946" dy="478" grid="1" gridSize="10" guides="1" tooltips="1" connect="1" arrows="1" fold="1" page="1" pageScale="1" pageWidth="827" pageHeight="1169" math="0" shadow="0">
      <root>
        <mxCell id="0" />
        <mxCell id="1" parent="0" />
        <mxCell id="cFWVLwaCDAjj0P3LfrQX-1" value="" style="rounded=0;whiteSpace=wrap;html=1;" parent="1" vertex="1">
          <mxGeometry x="520" y="40" width="180" height="220" as="geometry" />
        </mxCell>
        <mxCell id="cFWVLwaCDAjj0P3LfrQX-10" value="" style="endArrow=classic;html=1;exitX=0.25;exitY=1;exitDx=0;exitDy=0;" parent="1" source="cFWVLwaCDAjj0P3LfrQX-2" edge="1">
          <mxGeometry width="50" height="50" relative="1" as="geometry">
            <mxPoint x="390" y="300" as="sourcePoint" />
            <mxPoint x="580" y="338" as="targetPoint" />
          </mxGeometry>
        </mxCell>
        <mxCell id="cFWVLwaCDAjj0P3LfrQX-11" value="" style="endArrow=classic;html=1;exitX=0.75;exitY=1;exitDx=0;exitDy=0;" parent="1" source="cFWVLwaCDAjj0P3LfrQX-2" edge="1">
          <mxGeometry width="50" height="50" relative="1" as="geometry">
            <mxPoint x="390" y="300" as="sourcePoint" />
            <mxPoint x="642" y="339" as="targetPoint" />
          </mxGeometry>
        </mxCell>
        <mxCell id="cFWVLwaCDAjj0P3LfrQX-15" value="" style="rounded=1;whiteSpace=wrap;html=1;" parent="1" vertex="1">
          <mxGeometry x="560" y="180" width="100" height="40" as="geometry" />
        </mxCell>
        <mxCell id="cFWVLwaCDAjj0P3LfrQX-7" value="" style="rounded=0;whiteSpace=wrap;html=1;" parent="1" vertex="1">
          <mxGeometry x="487.5" y="340" width="245" height="100" as="geometry" />
        </mxCell>
        <mxCell id="cFWVLwaCDAjj0P3LfrQX-2" value="&lt;font face=&quot;Courier New&quot;&gt;RadosFragment&lt;/font&gt;" style="rounded=0;whiteSpace=wrap;html=1;" parent="1" vertex="1">
          <mxGeometry x="550" y="90" width="120" height="60" as="geometry" />
        </mxCell>
        <mxCell id="cFWVLwaCDAjj0P3LfrQX-4" value="OSD.3" style="shape=cylinder2;whiteSpace=wrap;html=1;boundedLbl=1;backgroundOutline=1;size=15;" parent="1" vertex="1">
          <mxGeometry x="660" y="350" width="60" height="80" as="geometry" />
        </mxCell>
        <mxCell id="cFWVLwaCDAjj0P3LfrQX-5" value="OSD.2" style="shape=cylinder2;whiteSpace=wrap;html=1;boundedLbl=1;backgroundOutline=1;size=15;" parent="1" vertex="1">
          <mxGeometry x="580" y="350" width="60" height="80" as="geometry" />
        </mxCell>
        <mxCell id="cFWVLwaCDAjj0P3LfrQX-6" value="OSD.1" style="shape=cylinder2;whiteSpace=wrap;html=1;boundedLbl=1;backgroundOutline=1;size=15;" parent="1" vertex="1">
          <mxGeometry x="501" y="350" width="60" height="80" as="geometry" />
        </mxCell>
        <mxCell id="cFWVLwaCDAjj0P3LfrQX-13" value="&lt;font face=&quot;Courier New&quot;&gt;RadosScanTask&lt;/font&gt;" style="text;html=1;strokeColor=none;fillColor=none;align=center;verticalAlign=middle;whiteSpace=wrap;rounded=0;" parent="1" vertex="1">
          <mxGeometry x="590" y="190" width="40" height="20" as="geometry" />
        </mxCell>
        <mxCell id="cFWVLwaCDAjj0P3LfrQX-19" value="&lt;h1&gt;Design&lt;/h1&gt;&lt;p&gt;1. RadosFragment will take the query expression and the object name. Each RadosFragment is an object which is a record batch or a group of record batches serialized as a stream of bytes.&lt;/p&gt;&lt;p&gt;2. The RadosFragment::Scan() will launch multiple RadosScanTasks and scan the object in the storage side and return Vector&amp;lt;RecordBatches&amp;gt;.&lt;/p&gt;&lt;p&gt;3. The RadosDataset can keep context of the all the inflight request and the entire execution context in general.&lt;/p&gt;&lt;p&gt;&lt;br&gt;&lt;/p&gt;&lt;p&gt;&lt;br&gt;&lt;/p&gt;" style="text;html=1;strokeColor=none;fillColor=none;spacing=5;spacingTop=-20;whiteSpace=wrap;overflow=hidden;rounded=0;" parent="1" vertex="1">
          <mxGeometry x="61" y="40" width="440" height="200" as="geometry" />
        </mxCell>
        <mxCell id="cFWVLwaCDAjj0P3LfrQX-20" style="edgeStyle=orthogonalEdgeStyle;rounded=0;orthogonalLoop=1;jettySize=auto;html=1;exitX=0.5;exitY=1;exitDx=0;exitDy=0;" parent="1" source="cFWVLwaCDAjj0P3LfrQX-1" target="cFWVLwaCDAjj0P3LfrQX-1" edge="1">
          <mxGeometry relative="1" as="geometry" />
        </mxCell>
        <mxCell id="2LEkLQyBd8j-8Uhb3pVc-1" value="&lt;font face=&quot;Courier New&quot;&gt;RadosDataset&lt;/font&gt;" style="text;html=1;strokeColor=none;fillColor=none;align=center;verticalAlign=middle;whiteSpace=wrap;rounded=0;" vertex="1" parent="1">
          <mxGeometry x="590" y="40" width="40" height="20" as="geometry" />
        </mxCell>
      </root>
    </mxGraphModel>
  </diagram>
</mxfile>
